<svg xmlns="http://www.w3.org/2000/svg" viewBox="0 0 512 512"><ellipse cx="256" cy="400" rx="180" ry="100" fill="#222"/><ellipse cx="160" cy="160" rx="100" ry="140" fill="#222"/><ellipse cx="352" cy="160" rx="100" ry="140" fill="#222"/><ellipse cx="256" cy="256" rx="160" ry="180" fill="#222"/><ellipse cx="192" cy="128" rx="30" ry="50" fill="#222"/><ellipse cx="320" cy="128" rx="30" ry="50" fill="#222"/><ellipse cx="192" cy="128" rx="12" ry="20" fill="#ff0"/><ellipse cx="320" cy="128" rx="12" ry="20" fill="#ff0"/><ellipse cx="256" cy="320" rx="40" ry="20" fill="#fff"/><ellipse cx="256" cy="320" rx="20" ry="10" fill="#222"/><ellipse cx="224" cy="224" rx="20" ry="15" fill="#fff"/><ellipse cx="288" cy="224" rx="20" ry="15" fill="#fff"/><ellipse cx="256" cy="420" rx="60" ry="20" fill="#444"/><ellipse cx="256" cy="440" rx="30" ry="10" fill="#222"/><ellipse cx="112" cy="64" rx="20" ry="60" fill="#222"/><ellipse cx="400" cy="64" rx="20" ry="60" fill="#222"/></svg>