<svg width="64" height="64" viewBox="0 0 64 64" fill="none" xmlns="http://www.w3.org/2000/svg">
  <ellipse cx="32" cy="48" rx="18" ry="10" fill="#222"/>
  <ellipse cx="20" cy="20" rx="10" ry="14" fill="#222"/>
  <ellipse cx="44" cy="20" rx="10" ry="14" fill="#222"/>
  <ellipse cx="32" cy="32" rx="16" ry="18" fill="#222"/>
  <ellipse cx="24" cy="16" rx="3" ry="5" fill="#222"/>
  <ellipse cx="40" cy="16" rx="3" ry="5" fill="#222"/>
  <ellipse cx="24" cy="16" rx="1.2" ry="2" fill="#fff"/>
  <ellipse cx="40" cy="16" rx="1.2" ry="2" fill="#fff"/>
  <ellipse cx="32" cy="40" rx="4" ry="2" fill="#fff"/>
  <ellipse cx="32" cy="40" rx="2" ry="1" fill="#222"/>
  <ellipse cx="28" cy="28" rx="2" ry="1.5" fill="#fff"/>
  <ellipse cx="36" cy="28" rx="2" ry="1.5" fill="#fff"/>
  <ellipse cx="32" cy="50" rx="6" ry="2" fill="#444"/>
  <ellipse cx="32" cy="52" rx="3" ry="1" fill="#222"/>
  <ellipse cx="16" cy="8" rx="2" ry="6" fill="#222"/>
  <ellipse cx="48" cy="8" rx="2" ry="6" fill="#222"/>
</svg>
