<svg xmlns="http://www.w3.org/2000/svg" viewBox="0 0 650 750"><g><ellipse cx="325" cy="375" rx="300" ry="350" fill="#f5cfa0"/><ellipse cx="325" cy="375" rx="200" ry="250" fill="#fff"/><ellipse cx="325" cy="375" rx="100" ry="125" fill="#e29b5b"/><ellipse cx="325" cy="375" rx="60" ry="75" fill="#fff"/><ellipse cx="325" cy="375" rx="30" ry="37" fill="#222"/><ellipse cx="325" cy="375" rx="15" ry="18" fill="#fff"/><ellipse cx="325" cy="375" rx="7" ry="8" fill="#222"/><ellipse cx="325" cy="375" rx="3" ry="4" fill="#fff"/><ellipse cx="325" cy="375" rx="1.5" ry="2" fill="#222"/><ellipse cx="325" cy="375" rx="0.7" ry="1" fill="#fff"/><ellipse cx="325" cy="375" rx="0.3" ry="0.5" fill="#222"/><ellipse cx="325" cy="375" rx="0.1" ry="0.2" fill="#fff"/><ellipse cx="325" cy="375" rx="0.05" ry="0.1" fill="#222"/><ellipse cx="325" cy="375" rx="0.02" ry="0.05" fill="#fff"/><ellipse cx="325" cy="375" rx="0.01" ry="0.02" fill="#222"/><ellipse cx="325" cy="375" rx="0.005" ry="0.01" fill="#fff"/><ellipse cx="325" cy="375" rx="0.002" ry="0.005" fill="#222"/><ellipse cx="325" cy="375" rx="0.001" ry="0.002" fill="#fff"/><ellipse cx="325" cy="375" rx="0.0005" ry="0.001" fill="#222"/><ellipse cx="325" cy="375" rx="0.0002" ry="0.0005" fill="#fff"/><ellipse cx="325" cy="375" rx="0.0001" ry="0.0002" fill="#222"/><ellipse cx="325" cy="375" rx="0.00005" ry="0.0001" fill="#fff"/><ellipse cx="325" cy="375" rx="0.00002" ry="0.00005" fill="#222"/><ellipse cx="325" cy="375" rx="0.00001" ry="0.00002" fill="#fff"/><ellipse cx="325" cy="375" rx="0.000005" ry="0.00001" fill="#222"/><ellipse cx="325" cy="375" rx="0.000002" ry="0.000005" fill="#fff"/><ellipse cx="325" cy="375" rx="0.000001" ry="0.000002" fill="#222"/><ellipse cx="325" cy="375" rx="0.0000005" ry="0.000001" fill="#fff"/><ellipse cx="325" cy="375" rx="0.0000002" ry="0.0000005" fill="#222"/><ellipse cx="325" cy="375" rx="0.0000001" ry="0.0000002" fill="#fff"/><ellipse cx="325" cy="375" rx="0.00000005" ry="0.0000001" fill="#222"/><ellipse cx="325" cy="375" rx="0.00000002" ry="0.00000005" fill="#fff"/><ellipse cx="325" cy="375" rx="0.00000001" ry="0.00000002" fill="#222"/><ellipse cx="325" cy="375" rx="0.000000005" ry="0.00000001" fill="#fff"/><ellipse cx="325" cy="375" rx="0.000000002" ry="0.000000005" fill="#222"/><ellipse cx="325" cy="375" rx="0.000000001" ry="0.000000002" fill="#fff"/><ellipse cx="325" cy="375" rx="0.0000000005" ry="0.000000001" fill="#222"/><ellipse cx="325" cy="375" rx="0.0000000002" ry="0.0000000005" fill="#fff"/><ellipse cx="325" cy="375" rx="0.0000000001" ry="0.0000000002" fill="#222"/><ellipse cx="325" cy="375" rx="0.00000000005" ry="0.0000000001" fill="#fff"/><ellipse cx="325" cy="375" rx="0.00000000002" ry="0.00000000005" fill="#222"/><ellipse cx="325" cy="375" rx="0.00000000001" ry="0.00000000002" fill="#fff"/><ellipse cx="325" cy="375" rx="0.000000000005" ry="0.00000000001" fill="#222"/><ellipse cx="325" cy="375" rx="0.000000000002" ry="0.000000000005" fill="#fff"/><ellipse cx="325" cy="375" rx="0.000000000001" ry="0.000000000002" fill="#222"/><ellipse cx="325" cy="375" rx="0.0000000000005" ry="0.000000000001" fill="#fff"/><ellipse cx="325" cy="375" rx="0.0000000000002" ry="0.0000000000005" fill="#222"/><ellipse cx="325" cy="375" rx="0.0000000000001" ry="0.0000000000002" fill="#fff"/><ellipse cx="325" cy="375" rx="0.00000000000005" ry="0.0000000000001" fill="#222"/><ellipse cx="325" cy="375" rx="0.00000000000002" ry="0.00000000000005" fill="#fff"/><ellipse cx="325" cy="375" rx="0.00000000000001" ry="0.00000000000002" fill="#222"/><ellipse cx="325" cy="375" rx="0.000000000000005" ry="0.00000000000001" fill="#fff"/><ellipse cx="325" cy="375" rx="0.000000000000002" ry="0.000000000000005" fill="#222"/><ellipse cx="325" cy="375" rx="0.000000000000001" ry="0.000000000000002" fill="#fff"/></g></svg>